<svg width="150" height="150" viewBox="0 0 150 150" fill="none" xmlns="http://www.w3.org/2000/svg">
<path opacity="0.9" d="M116.973 131.42C115.152 133.344 112.197 133.344 110.366 131.42C108.545 129.497 108.545 126.377 110.366 124.443C112.187 122.519 115.142 122.519 116.973 124.443C118.795 126.366 118.795 129.497 116.973 131.42Z" fill="#C8A3D5"/>
<path opacity="0.3" d="M33.9277 41.812C35.5204 41.812 36.8115 40.4485 36.8115 38.7666C36.8115 37.0847 35.5204 35.7212 33.9277 35.7212C32.335 35.7212 31.0439 37.0847 31.0439 38.7666C31.0439 40.4485 32.335 41.812 33.9277 41.812Z" fill="#C8A3D5"/>
<path opacity="0.2" d="M88.0238 11.3054C86.8703 12.5236 85.0085 12.5236 83.8651 11.3054C82.7116 10.0873 82.7116 8.1211 83.8651 6.91362C85.0186 5.69546 86.8804 5.69546 88.0238 6.91362C89.1672 8.13179 89.1672 10.0979 88.0238 11.3054Z" fill="#C8A3D5"/>
<path opacity="0.2" d="M139.968 99.0729C140.996 99.0729 141.83 98.1927 141.83 97.1068C141.83 96.0209 140.996 95.1406 139.968 95.1406C138.94 95.1406 138.106 96.0209 138.106 97.1068C138.106 98.1927 138.94 99.0729 139.968 99.0729Z" fill="#C8A3D5"/>
<path opacity="0.2" d="M144.745 87.6396C143.227 89.2424 140.758 89.2424 139.23 87.6396C137.712 86.0367 137.712 83.4294 139.23 81.8159C140.748 80.2131 143.217 80.2131 144.745 81.8159C146.262 83.4294 146.262 86.0367 144.745 87.6396Z" fill="#C8A3D5"/>
<path opacity="0.2" d="M70.3791 3.97506C71.4185 3.97506 72.2611 3.08521 72.2611 1.98753C72.2611 0.889848 71.4185 0 70.3791 0C69.3397 0 68.4971 0.889848 68.4971 1.98753C68.4971 3.08521 69.3397 3.97506 70.3791 3.97506Z" fill="#C8A3D5"/>
<path opacity="0.3" d="M2.88376 87.8032C4.47641 87.8032 5.76752 86.4397 5.76752 84.7578C5.76752 83.0759 4.47641 81.7124 2.88376 81.7124C1.2911 81.7124 0 83.0759 0 84.7578C0 86.4397 1.2911 87.8032 2.88376 87.8032Z" fill="#C8A3D5"/>
<path opacity="0.2" d="M137.297 30.8595C136.559 32.1739 136.973 33.8622 138.208 34.6422C139.452 35.4223 141.051 34.9842 141.79 33.6805C142.528 32.3662 142.114 30.6779 140.879 29.8978C139.635 29.1178 138.036 29.5452 137.297 30.8595Z" fill="#C8A3D5"/>
<path opacity="0.2" d="M146.879 30.4427C146.404 31.2868 146.667 32.3661 147.466 32.8683C148.266 33.3705 149.288 33.0927 149.763 32.2486C150.239 31.4044 149.976 30.3251 149.176 29.8229C148.377 29.3207 147.355 29.5985 146.879 30.4427Z" fill="#C8A3D5"/>
<path opacity="0.2" d="M62.1174 149.994C61.0954 149.908 60.3264 148.957 60.4175 147.878C60.5085 146.799 61.399 145.987 62.4209 146.083C63.4429 146.179 64.2119 147.119 64.1208 148.199C64.0399 149.278 63.1495 150.079 62.1174 149.994Z" fill="#C8A3D5"/>
<path opacity="0.2" d="M72.195 145.763C70.0499 145.581 68.4511 143.593 68.6333 141.317C68.8053 139.052 70.6873 137.364 72.8426 137.556C74.9877 137.738 76.5864 139.725 76.4043 142.001C76.2221 144.267 74.3401 145.955 72.195 145.763Z" fill="#C8A3D5"/>
<g opacity="0.9">
<path opacity="0.9" d="M6.57831 35.144C5.41469 37.2277 6.06227 39.9098 8.02525 41.1493C9.99834 42.3782 12.5381 41.6943 13.7118 39.6213C14.8754 37.5376 14.2279 34.8555 12.2649 33.616C10.2918 32.3764 7.75205 33.071 6.57831 35.144Z" fill="#C8A3D5"/>
<path opacity="0.9" d="M59.7517 97.2784C58.922 98.753 59.3875 100.644 60.7737 101.521C62.1701 102.397 63.961 101.905 64.7907 100.441C65.6204 98.9667 65.155 97.0753 63.7688 96.1991C62.3724 95.3229 60.5713 95.8038 59.7517 97.2784Z" fill="#C8A3D5"/>
</g>
<rect opacity="0.7" x="69.332" y="16.667" width="67.4067" height="95.3323" rx="6" transform="rotate(30 69.332 16.667)" fill="#B17CC3"/>
<g opacity="0.7" clip-path="url(#clip0)">
<path d="M66.9229 75.7271L64.421 74.2826L85.606 37.5892L88.1078 39.0336L66.9229 75.7271Z" fill="#9760AA"/>
<path d="M73.5947 79.5791L71.0929 78.1347L92.2779 41.4412L94.7797 42.8857L73.5947 79.5791Z" fill="#9760AA"/>
<path d="M80.2656 83.4312L77.7638 81.9867L98.9488 45.2933L101.451 46.7377L80.2656 83.4312Z" fill="#9760AA"/>
</g>
<path d="M63.4689 94.3704C65.5567 90.7543 63.6886 85.7668 59.2962 83.2309C54.9037 80.6949 50.7873 79.6017 47.5627 85.1869C44.338 90.7722 47.3429 93.7906 51.7354 96.3266C56.1278 98.8626 61.3811 97.9866 63.4689 94.3704Z" fill="#9760AA"/>
<path d="M68.4712 113.748C68.205 113.596 68.3951 113.707 68.4712 113.748V113.748Z" fill="url(#paint0_linear)"/>
<path d="M82.962 89.1351C82.8907 89.0892 82.454 88.8402 82.962 89.1351V89.1351Z" fill="url(#paint1_linear)"/>
<path d="M82.4229 88.8426C74.7013 84.5462 71.944 84.2867 66.1489 91.1369C66.1489 91.1369 66.8991 93.0053 65.4505 95.5143C64.002 98.0233 62.0087 98.308 62.0087 98.308C59.0069 106.66 60.5428 108.96 67.9128 113.401C68.5146 113.764 68.5435 113.787 68.4717 113.749C68.6043 113.824 68.8493 113.965 69.2762 114.212C69.2762 114.212 73.9974 114.51 80.0861 103.964C86.1746 93.4185 83.5557 89.4787 83.5557 89.4787C83.2815 89.3204 83.0909 89.2101 82.9613 89.135C83.0038 89.1622 82.9168 89.1174 82.4229 88.8426Z" fill="#9760AA"/>
<defs>
<linearGradient id="paint0_linear" x1="68.3988" y1="113.708" x2="68.4001" y2="113.706" gradientUnits="userSpaceOnUse">
<stop stop-color="#4F24FF"/>
<stop offset="1" stop-color="#00FFE2"/>
</linearGradient>
<linearGradient id="paint1_linear" x1="82.8343" y1="89.0616" x2="82.8362" y2="89.0584" gradientUnits="userSpaceOnUse">
<stop stop-color="#4F24FF"/>
<stop offset="1" stop-color="#00FFE2"/>
</linearGradient>
<clipPath id="clip0">
<rect width="37.5552" height="37.5552" fill="white" transform="translate(57.6377 67.7358) rotate(-60)"/>
</clipPath>
</defs>
</svg>
