<svg width="150" height="150" viewBox="0 0 150 150" fill="none" xmlns="http://www.w3.org/2000/svg">
<path d="M104.971 24.9111L124.87 36.3998L87.2703 101.524L67.3713 90.0352L104.971 24.9111Z" fill="#B17CC4"/>
<path d="M105.126 38.3057L113.193 42.9632L97.1224 70.7985L89.0553 66.1409L105.126 38.3057Z" fill="#9760AA"/>
<path d="M77.2541 76.507C82.7491 73.3345 89.7754 75.2172 92.948 80.7122C96.1205 86.2072 94.2378 93.2335 88.7428 96.4061L33.5683 128.261L22.0796 108.362L77.2541 76.507Z" fill="url(#paint0_linear)"/>
<circle cx="82.7643" cy="86.5915" r="7.31099" transform="rotate(-30 82.7643 86.5915)" fill="#B17CC3"/>
<path opacity="0.9" d="M116.755 103.942C114.832 102.12 114.832 99.1657 116.755 97.3343C118.678 95.5129 121.799 95.5129 123.733 97.3343C125.656 99.1556 125.656 102.11 123.733 103.942C121.809 105.763 118.678 105.763 116.755 103.942Z" fill="#B17CC3"/>
<path opacity="0.2" d="M135.446 73.9608C134.228 72.8073 134.228 70.9455 135.446 69.8021C136.664 68.6486 138.63 68.6486 139.838 69.8021C141.056 70.9556 141.056 72.8174 139.838 73.9608C138.62 75.1042 136.654 75.1042 135.446 73.9608Z" fill="#B17CC3"/>
<path opacity="0.2" d="M50.9276 139.969C50.9276 140.997 51.8078 141.831 52.8937 141.831C53.9796 141.831 54.8599 140.997 54.8599 139.969C54.8599 138.94 53.9796 138.107 52.8937 138.107C51.8078 138.107 50.9276 138.94 50.9276 139.969Z" fill="#B17CC3"/>
<path opacity="0.2" d="M62.3604 144.744C60.7576 143.226 60.7576 140.758 62.3604 139.23C63.9633 137.712 66.5706 137.712 68.1841 139.23C69.7869 140.747 69.7869 143.216 68.1841 144.744C66.5706 146.262 63.9633 146.262 62.3604 144.744Z" fill="#B17CC3"/>
<path opacity="0.2" d="M146.025 70.3786C146.025 71.418 146.915 72.2606 148.012 72.2606C149.11 72.2606 150 71.418 150 70.3786C150 69.3392 149.11 68.4966 148.012 68.4966C146.915 68.4966 146.025 69.3392 146.025 70.3786Z" fill="#B17CC3"/>
<path opacity="0.3" d="M62.1968 2.88376C62.1968 4.47641 63.5603 5.76752 65.2422 5.76752C66.9241 5.76752 68.2876 4.47641 68.2876 2.88376C68.2876 1.2911 66.9241 -5.95994e-08 65.2422 -1.33119e-07C63.5603 -2.06639e-07 62.1968 1.2911 62.1968 2.88376Z" fill="#B17CC3"/>
<path opacity="0.2" d="M119.14 137.297C117.826 136.559 116.138 136.973 115.358 138.208C114.578 139.452 115.016 141.051 116.319 141.79C117.634 142.528 119.322 142.114 120.102 140.879C120.882 139.635 120.455 138.036 119.14 137.297Z" fill="#B17CC3"/>
<path opacity="0.2" d="M119.557 146.879C118.713 146.404 117.633 146.667 117.131 147.466C116.629 148.266 116.907 149.288 117.751 149.763C118.595 150.239 119.674 149.976 120.177 149.176C120.679 148.377 120.401 147.355 119.557 146.879Z" fill="#B17CC3"/>
<path opacity="0.2" d="M0.00660078 62.1174C0.0920863 61.0954 1.04311 60.3264 2.12236 60.4175C3.20161 60.5085 4.01373 61.399 3.91756 62.4209C3.82139 63.4429 2.88105 64.2119 1.8018 64.1208C0.722549 64.0399 -0.0788847 63.1495 0.00660078 62.1174Z" fill="#B17CC3"/>
<path opacity="0.2" d="M4.23797 72.195C4.41962 70.0499 6.40714 68.4511 8.68319 68.6333C10.9485 68.8053 12.6369 70.6873 12.4445 72.8426C12.2629 74.9877 10.2753 76.5864 7.9993 76.4043C5.73395 76.2221 4.04563 74.3401 4.23797 72.195Z" fill="#B17CC3"/>
<g opacity="0.9">
<path opacity="0.9" d="M39.2847 23.2892C37.201 22.1256 34.5189 22.7732 33.2794 24.7362C32.0505 26.7093 32.7344 29.249 34.8074 30.4228C36.8911 31.5864 39.5732 30.9388 40.8127 28.9758C42.0523 27.0027 41.3577 24.463 39.2847 23.2892Z" fill="#B17CC3"/>
<path opacity="0.9" d="M52.7216 59.7517C51.247 58.922 49.3556 59.3875 48.4794 60.7737C47.6032 62.1701 48.0947 63.961 49.5587 64.7907C51.0333 65.6204 52.9247 65.155 53.8009 63.7688C54.6771 62.3724 54.1962 60.5713 52.7216 59.7517Z" fill="#B17CC3"/>
</g>
<defs>
<linearGradient id="paint0_linear" x1="24.4183" y1="103.799" x2="62.7745" y2="120.467" gradientUnits="userSpaceOnUse">
<stop stop-color="#9760AA"/>
<stop offset="1" stop-color="#9760AA"/>
</linearGradient>
</defs>
</svg>
