<svg width="150" height="158" viewBox="0 0 150 158" fill="none" xmlns="http://www.w3.org/2000/svg">
<path opacity="0.9" d="M34.015 133.023C35.3802 131.658 37.5947 131.658 38.9674 133.023C40.3325 134.388 40.3325 136.603 38.9674 137.976C37.6023 139.341 35.3877 139.341 34.015 137.976C32.6499 136.611 32.6499 134.388 34.015 133.023Z" fill="#B17CC3"/>
<path opacity="0.3" d="M116.05 116.201C114.457 116.201 113.166 117.564 113.166 119.246C113.166 120.928 114.457 122.292 116.05 122.292C117.642 122.292 118.934 120.928 118.934 119.246C118.934 117.564 117.642 116.201 116.05 116.201Z" fill="#B17CC3"/>
<path opacity="0.2" d="M88.8483 141.913C90.0018 140.695 91.8636 140.695 93.0069 141.913C94.1604 143.131 94.1604 145.098 93.0069 146.305C91.8534 147.523 89.9916 147.523 88.8483 146.305C87.7049 145.087 87.7049 143.121 88.8483 141.913Z" fill="#B17CC3"/>
<path opacity="0.2" d="M10.0288 58.9232C9.0006 58.9232 8.16705 59.8034 8.16705 60.8893C8.16705 61.9752 9.0006 62.8555 10.0288 62.8555C11.0571 62.8555 11.8906 61.9752 11.8906 60.8893C11.8906 59.8034 11.0571 58.9232 10.0288 58.9232Z" fill="#B17CC3"/>
<path opacity="0.2" d="M5.23775 70.3682C6.75551 68.7654 9.22441 68.7654 10.7523 70.3682C12.2701 71.9711 12.2701 74.5784 10.7523 76.1919C9.23453 77.7948 6.76563 77.7948 5.23775 76.1919C3.71998 74.5784 3.71998 71.9711 5.23775 70.3682Z" fill="#B17CC3"/>
<path opacity="0.2" d="M79.6248 154.022C78.5854 154.022 77.7428 154.912 77.7428 156.01C77.7428 157.107 78.5854 157.997 79.6248 157.997C80.6642 157.997 81.5068 157.107 81.5068 156.01C81.5068 154.912 80.6642 154.022 79.6248 154.022Z" fill="#B17CC3"/>
<path opacity="0.3" d="M147.105 70.2046C145.512 70.2046 144.221 71.5681 144.221 73.25C144.221 74.9319 145.512 76.2954 147.105 76.2954C148.697 76.2954 149.988 74.9319 149.988 73.25C149.988 71.5681 148.697 70.2046 147.105 70.2046Z" fill="#B17CC3"/>
<path opacity="0.2" d="M12.696 127.129C13.4346 125.815 13.0197 124.127 11.7853 123.347C10.5407 122.566 8.942 123.005 8.20336 124.308C7.46471 125.623 7.87956 127.311 9.11401 128.091C10.3586 128.871 11.9573 128.444 12.696 127.129Z" fill="#B17CC3"/>
<path opacity="0.2" d="M3.12054 127.537C3.59611 126.693 3.33303 125.614 2.53367 125.112C1.73432 124.609 0.712351 124.887 0.236785 125.731C-0.238781 126.576 0.0242999 127.655 0.823655 128.157C1.62301 128.659 2.64498 128.381 3.12054 127.537Z" fill="#B17CC3"/>
<path opacity="0.2" d="M87.8562 7.99684C88.8782 8.08232 89.6472 9.03334 89.5562 10.1126C89.4651 11.1918 88.5747 12.004 87.5527 11.9078C86.5307 11.8116 85.7617 10.8713 85.8528 9.79204C85.9337 8.71278 86.8242 7.91135 87.8562 7.99684Z" fill="#B17CC3"/>
<path opacity="0.2" d="M76.2142 0.0148226C78.3593 0.19648 79.958 2.184 79.7759 4.46004C79.6039 6.7254 77.7219 8.41374 75.5666 8.2214C73.4215 8.03974 71.8228 6.0522 72.0049 3.77616C72.1871 1.5108 74.0691 -0.177518 76.2142 0.0148226Z" fill="#B17CC3"/>
<g opacity="0.9">
<path opacity="0.9" d="M126.705 47.272C127.869 45.1883 127.221 42.5062 125.258 41.2667C123.285 40.0378 120.745 40.7217 119.571 42.7947C118.408 44.8784 119.055 47.5605 121.018 48.8001C122.991 50.0396 125.531 49.345 126.705 47.272Z" fill="#B17CC3"/>
<path opacity="0.9" d="M90.2502 60.7163C91.0799 59.2416 90.6145 57.3503 89.2282 56.4741C87.8319 55.5978 86.0409 56.0894 85.2112 57.5533C84.3815 59.0279 84.847 60.9193 86.2332 61.7955C87.6295 62.6717 89.4306 62.1909 90.2502 60.7163Z" fill="#B17CC3"/>
</g>
<path d="M109.979 92.4291L74.5554 113.078L39.1455 92.4291L74.5554 71.7939L109.979 92.4291Z" fill="#B17CC3"/>
<path opacity="0.7" d="M109.982 85.7844L74.5586 18.8398V106.433L109.982 85.7844Z" fill="#B17CC3"/>
<path opacity="0.7" d="M39.1816 85.8211L74.5915 18.8765V106.47L39.1816 85.8211Z" fill="#9760AA"/>
<path opacity="0.7" d="M109.982 92.4116L74.5586 146.8V113.061L109.982 92.4116Z" fill="#9760AA"/>
<path opacity="0.7" d="M39.1455 92.4116L74.5554 146.8V113.061L39.1455 92.4116Z" fill="#B17CC3"/>
<path d="M109.979 86.1074L74.5554 106.743L39.1455 86.1074L74.5554 65.4585L109.979 86.1074Z" fill="#9760AA"/>
<path opacity="0.7" d="M109.982 86.114L74.5586 19.1694V106.749L109.982 86.114Z" fill="#9760AA"/>
<path opacity="0.7" d="M39.1455 86.114L74.5554 19.1694V106.749L39.1455 86.114Z" fill="#B17CC3"/>
<path opacity="0.7" d="M109.982 92.7412L74.5586 147.116V113.376L109.982 92.7412Z" fill="#9760AA"/>
<path opacity="0.7" d="M39.1455 92.7412L74.5554 147.116V113.376L39.1455 92.7412Z" fill="#B17CC3"/>
</svg>
