<svg width="93" height="32" viewBox="0 0 93 32" fill="none" xmlns="http://www.w3.org/2000/svg">
<mask id="mask0" mask-type="alpha" maskUnits="userSpaceOnUse" x="0" y="0" width="16" height="32">
<path fill-rule="evenodd" clip-rule="evenodd" d="M0 0H15.9634V31.9999H0V0Z" fill="white"/>
</mask>
<g mask="url(#mask0)">
<path fill-rule="evenodd" clip-rule="evenodd" d="M1.20372 15.9999H5.93219C6.59581 15.9999 7.13353 16.5389 7.13353 17.204V24.3512C7.13353 24.6707 7.26006 24.9772 7.48519 25.2025L13.9124 31.6448C14.6694 32.4032 15.9634 31.8664 15.9634 30.7938V1.20634C15.9634 0.13372 14.6694 -0.403369 13.9124 0.355021L0.354346 13.9445C-0.402618 14.7029 0.133552 15.9999 1.20372 15.9999" fill="#9760AA"/>
</g>
<path d="M31.6061 23.176C30.2861 23.176 29.2228 22.7873 28.4161 22.01C27.6241 21.218 27.2281 20.162 27.2281 18.842V11.714C27.2281 10.4087 27.6241 9.36733 28.4161 8.59C29.2228 7.81267 30.2861 7.424 31.6061 7.424C32.9408 7.424 34.0041 7.81267 34.7961 8.59C35.6028 9.36733 36.0061 10.4087 36.0061 11.714V11.956C36.0061 12.0293 35.9768 12.0953 35.9181 12.154C35.8741 12.198 35.8155 12.22 35.7421 12.22L33.1681 12.33C32.9921 12.33 32.9041 12.2493 32.9041 12.088V11.516C32.9041 11.0907 32.7868 10.746 32.5521 10.482C32.3175 10.218 32.0021 10.086 31.6061 10.086C31.2248 10.086 30.9168 10.218 30.6821 10.482C30.4475 10.746 30.3301 11.0907 30.3301 11.516V19.106C30.3301 19.5313 30.4475 19.876 30.6821 20.14C30.9168 20.3893 31.2248 20.514 31.6061 20.514C32.0021 20.514 32.3175 20.3893 32.5521 20.14C32.7868 19.876 32.9041 19.5313 32.9041 19.106V18.512C32.9041 18.4387 32.9261 18.38 32.9701 18.336C33.0288 18.2773 33.0948 18.248 33.1681 18.248L35.7421 18.358C35.8155 18.358 35.8741 18.3873 35.9181 18.446C35.9768 18.49 36.0061 18.5487 36.0061 18.622V18.842C36.0061 20.162 35.6028 21.218 34.7961 22.01C33.9895 22.7873 32.9261 23.176 31.6061 23.176ZM43.7452 7.864C43.7452 7.79067 43.7672 7.732 43.8112 7.688C43.8699 7.62933 43.9359 7.6 44.0092 7.6H46.5832C46.6565 7.6 46.7152 7.62933 46.7592 7.688C46.8179 7.732 46.8472 7.79067 46.8472 7.864V22.736C46.8472 22.8093 46.8179 22.8753 46.7592 22.934C46.7152 22.978 46.6565 23 46.5832 23H44.0092C43.9359 23 43.8699 22.978 43.8112 22.934C43.7672 22.8753 43.7452 22.8093 43.7452 22.736V16.73C43.7452 16.6567 43.7085 16.62 43.6352 16.62H41.4352C41.3619 16.62 41.3252 16.6567 41.3252 16.73V22.736C41.3252 22.8093 41.2959 22.8753 41.2372 22.934C41.1932 22.978 41.1345 23 41.0612 23H38.4872C38.4139 23 38.3479 22.978 38.2892 22.934C38.2452 22.8753 38.2232 22.8093 38.2232 22.736V7.864C38.2232 7.79067 38.2452 7.732 38.2892 7.688C38.3479 7.62933 38.4139 7.6 38.4872 7.6H41.0612C41.1345 7.6 41.1932 7.62933 41.2372 7.688C41.2959 7.732 41.3252 7.79067 41.3252 7.864V13.848C41.3252 13.9213 41.3619 13.958 41.4352 13.958H43.6352C43.7085 13.958 43.7452 13.9213 43.7452 13.848V7.864ZM55.8315 23C55.6555 23 55.5602 22.9193 55.5455 22.758L55.1935 20.646C55.1935 20.5727 55.1495 20.536 55.0615 20.536H52.2675C52.1795 20.536 52.1355 20.5727 52.1355 20.646L51.7835 22.758C51.7688 22.9193 51.6735 23 51.4975 23H48.9235C48.7328 23 48.6595 22.9047 48.7035 22.714L51.9375 7.842C51.9668 7.68067 52.0622 7.6 52.2235 7.6H55.1935C55.3548 7.6 55.4502 7.68067 55.4795 7.842L58.6915 22.714L58.7135 22.802C58.7135 22.934 58.6328 23 58.4715 23H55.8315ZM52.5755 18.028C52.5755 18.1013 52.6048 18.138 52.6635 18.138H54.6435C54.7168 18.138 54.7462 18.1013 54.7315 18.028L53.6975 12.022C53.6828 11.978 53.6608 11.956 53.6315 11.956C53.6022 11.956 53.5802 11.978 53.5655 12.022L52.5755 18.028ZM60.8108 23C60.7375 23 60.6715 22.978 60.6128 22.934C60.5688 22.8753 60.5468 22.8093 60.5468 22.736V7.864C60.5468 7.79067 60.5688 7.732 60.6128 7.688C60.6715 7.62933 60.7375 7.6 60.8108 7.6H63.3848C63.4581 7.6 63.5168 7.62933 63.5608 7.688C63.6195 7.732 63.6488 7.79067 63.6488 7.864V22.736C63.6488 22.8093 63.6195 22.8753 63.5608 22.934C63.5168 22.978 63.4581 23 63.3848 23H60.8108ZM72.4791 7.864C72.4791 7.79067 72.5011 7.732 72.5451 7.688C72.6038 7.62933 72.6698 7.6 72.7431 7.6H75.2951C75.3684 7.6 75.4271 7.62933 75.4711 7.688C75.5298 7.732 75.5591 7.79067 75.5591 7.864V22.736C75.5591 22.8093 75.5298 22.8753 75.4711 22.934C75.4271 22.978 75.3684 23 75.2951 23H72.3911C72.2444 23 72.1491 22.9267 72.1051 22.78L69.3771 14.266C69.3624 14.222 69.3331 14.2073 69.2891 14.222C69.2598 14.222 69.2451 14.244 69.2451 14.288L69.2671 22.736C69.2671 22.8093 69.2378 22.8753 69.1791 22.934C69.1351 22.978 69.0764 23 69.0031 23H66.4511C66.3778 23 66.3118 22.978 66.2531 22.934C66.2091 22.8753 66.1871 22.8093 66.1871 22.736V7.864C66.1871 7.79067 66.2091 7.732 66.2531 7.688C66.3118 7.62933 66.3778 7.6 66.4511 7.6H69.3331C69.4798 7.6 69.5751 7.67333 69.6191 7.82L72.3691 16.334C72.3838 16.378 72.4058 16.4 72.4351 16.4C72.4791 16.3853 72.5011 16.356 72.5011 16.312L72.4791 7.864Z" fill="#0E0E0E"/>
<path fill-rule="evenodd" clip-rule="evenodd" d="M90.1988 8.14161C90.4223 8.14161 90.5672 7.99615 90.5672 7.75403C90.5672 7.51812 90.4223 7.38478 90.1988 7.38478H89.8366V8.14161H90.1988ZM89.4076 7.05949H90.2831C90.7122 7.05949 91.0022 7.33176 91.0022 7.7554C91.0022 8.10662 90.7727 8.31238 90.5854 8.36087V8.37299C90.5854 8.37299 90.6096 8.39724 90.6639 8.50012L91.0986 9.34149H90.6276L90.2049 8.45785H89.8365V9.34149H89.4076V7.05949ZM90.1444 10.0068C91.1169 10.0068 91.8658 9.21986 91.8658 8.20877C91.8658 7.19769 91.1169 6.41102 90.1444 6.41102C89.1843 6.41102 88.441 7.19769 88.441 8.20877C88.441 9.21986 89.1843 10.0068 90.1444 10.0068V10.0068ZM90.1444 6C91.3463 6 92.3067 6.98093 92.3067 8.2099C92.3067 9.43886 91.3463 10.4195 90.1444 10.4195C88.9545 10.4195 88 9.43886 88 8.2099C88 6.98093 88.9545 6 90.1444 6V6Z" fill="#FEFEFE"/>
</svg>
