<svg width="25" height="13" viewBox="0 0 25 13" fill="none" xmlns="http://www.w3.org/2000/svg">
<path d="M18.2171 0.150844C18.0184 0.351795 18.0184 0.677932 18.2171 0.878798L23.2631 5.98513L0.508748 5.98513C0.227834 5.98513 -2.96552e-07 6.21569 -2.84126e-07 6.49995C-2.717e-07 6.78422 0.227834 7.01477 0.508749 7.01477L23.263 7.01477L18.2169 12.1212C18.0184 12.3221 18.0183 12.6482 18.217 12.8492C18.4157 13.0503 18.7378 13.0503 18.9365 12.8491L24.851 6.86393C24.9503 6.76345 25 6.63166 25 6.49995C25 6.36824 24.9503 6.23645 24.8509 6.13597L18.9364 0.150844C18.7378 -0.0502795 18.4157 -0.0502795 18.2171 0.150844Z" fill="#D3D3D3"/>
</svg>
