<svg width="120" height="30" viewBox="0 0 120 30" fill="none" xmlns="http://www.w3.org/2000/svg">
<circle cx="105" cy="15" r="14.625" stroke="#9760AA" stroke-width="0.75"/>
<path d="M103.647 20.544C103.635 20.568 103.635 20.592 103.647 20.616C103.659 20.628 103.677 20.634 103.701 20.634H107.931C108.051 20.634 108.111 20.694 108.111 20.814V21.57C108.111 21.69 108.051 21.75 107.931 21.75H102.279C102.159 21.75 102.099 21.69 102.099 21.57V20.76C102.099 20.664 102.123 20.586 102.171 20.526C102.543 19.938 102.753 19.602 102.801 19.518C103.857 17.85 104.691 16.494 105.303 15.45C106.071 14.13 106.455 13.038 106.455 12.174C106.455 11.55 106.311 11.052 106.023 10.68C105.735 10.308 105.357 10.122 104.889 10.122C104.433 10.122 104.061 10.308 103.773 10.68C103.497 11.04 103.365 11.52 103.377 12.12V12.804C103.377 12.924 103.317 12.984 103.197 12.984H102.261C102.141 12.984 102.081 12.924 102.081 12.804V12.084C102.105 11.16 102.375 10.416 102.891 9.852C103.419 9.288 104.103 9.006 104.943 9.006C105.783 9.006 106.461 9.3 106.977 9.888C107.493 10.464 107.751 11.226 107.751 12.174C107.751 13.302 107.325 14.574 106.473 15.99C106.041 16.722 105.435 17.706 104.655 18.942L103.647 20.544Z" fill="#9760AA"/>
<line x1="90" y1="15.375" x2="30" y2="15.375" stroke="#9760AA" stroke-opacity="0.3" stroke-width="0.75"/>
<circle cx="15" cy="15" r="14.625" stroke="#9760AA" stroke-opacity="0.3" stroke-width="0.75"/>
<path d="M13.7109 18.5148L19.9364 10.2375C20.1387 9.9686 20.5125 9.92092 20.7714 10.131C21.0302 10.3411 21.0761 10.7294 20.8739 10.9983L14.2821 19.7625C14.0799 20.0314 13.706 20.0791 13.4472 19.869L9.22864 16.4453C8.96977 16.2352 8.92387 15.8469 9.12612 15.578C9.32837 15.3091 9.70219 15.2614 9.96106 15.4715L13.7109 18.5148Z" fill="#9760AA"/>
</svg>
