<svg width="120" height="30" viewBox="0 0 120 30" fill="none" xmlns="http://www.w3.org/2000/svg">
<circle cx="15" cy="15" r="14.625" stroke="#9760AA" stroke-width="0.75"/>
<path d="M14.8573 9.204C14.9293 9.168 15.0073 9.15 15.0913 9.15H16.0633C16.1833 9.15 16.2433 9.21 16.2433 9.33V21.57C16.2433 21.69 16.1833 21.75 16.0633 21.75H15.1453C15.0253 21.75 14.9653 21.69 14.9653 21.57V10.662C14.9653 10.638 14.9533 10.62 14.9293 10.608C14.9173 10.596 14.8993 10.596 14.8753 10.608L13.1833 11.166L13.1293 11.184C13.0453 11.184 12.9913 11.13 12.9673 11.022L12.8773 10.356V10.32C12.8773 10.26 12.9193 10.2 13.0033 10.14L14.8573 9.204Z" fill="#9760AA"/>
<circle cx="105" cy="15" r="14.625" stroke="#A4A4A4" stroke-width="0.75"/>
<path d="M103.647 20.544C103.635 20.568 103.635 20.592 103.647 20.616C103.659 20.628 103.677 20.634 103.701 20.634H107.931C108.051 20.634 108.111 20.694 108.111 20.814V21.57C108.111 21.69 108.051 21.75 107.931 21.75H102.279C102.159 21.75 102.099 21.69 102.099 21.57V20.76C102.099 20.664 102.123 20.586 102.171 20.526C102.543 19.938 102.753 19.602 102.801 19.518C103.857 17.85 104.691 16.494 105.303 15.45C106.071 14.13 106.455 13.038 106.455 12.174C106.455 11.55 106.311 11.052 106.023 10.68C105.735 10.308 105.357 10.122 104.889 10.122C104.433 10.122 104.061 10.308 103.773 10.68C103.497 11.04 103.365 11.52 103.377 12.12V12.804C103.377 12.924 103.317 12.984 103.197 12.984H102.261C102.141 12.984 102.081 12.924 102.081 12.804V12.084C102.105 11.16 102.375 10.416 102.891 9.852C103.419 9.288 104.103 9.006 104.943 9.006C105.783 9.006 106.461 9.3 106.977 9.888C107.493 10.464 107.751 11.226 107.751 12.174C107.751 13.302 107.325 14.574 106.473 15.99C106.041 16.722 105.435 17.706 104.655 18.942L103.647 20.544Z" fill="#A4A4A4"/>
<line x1="90" y1="15.375" x2="30" y2="15.375" stroke="#A4A4A4" stroke-width="0.75"/>
</svg>
