<svg width="210" height="30" viewBox="0 0 210 30" fill="none" xmlns="http://www.w3.org/2000/svg">
<circle cx="15" cy="15" r="14.625" stroke="#9760AA" stroke-opacity="0.3" stroke-width="0.75"/>
<circle cx="105" cy="15" r="14.625" stroke="#9760AA" stroke-opacity="0.3" stroke-width="0.75"/>
<path d="M103.711 18.5148L109.936 10.2375C110.139 9.9686 110.512 9.92092 110.771 10.131C111.03 10.3411 111.076 10.7294 110.874 10.9983L104.282 19.7625C104.08 20.0314 103.706 20.0791 103.447 19.869L99.2286 16.4453C98.9698 16.2352 98.9239 15.8469 99.1261 15.578C99.3284 15.3091 99.7022 15.2614 99.9611 15.4715L103.711 18.5148Z" fill="#9760AA"/>
<line x1="90" y1="15.375" x2="30" y2="15.375" stroke="#9760AA" stroke-opacity="0.3" stroke-width="0.75"/>
<circle cx="195" cy="15" r="14.625" stroke="#9760AA" stroke-opacity="0.3" stroke-width="0.75"/>
<path d="M193.711 18.5148L199.936 10.2375C200.139 9.9686 200.512 9.92092 200.771 10.131C201.03 10.3411 201.076 10.7294 200.874 10.9983L194.282 19.7625C194.08 20.0314 193.706 20.0791 193.447 19.869L189.229 16.4453C188.97 16.2352 188.924 15.8469 189.126 15.578C189.328 15.3091 189.702 15.2614 189.961 15.4715L193.711 18.5148Z" fill="#9760AA"/>
<line x1="180" y1="15.375" x2="120" y2="15.375" stroke="#9760AA" stroke-opacity="0.3" stroke-width="0.75"/>
<path d="M13.7109 18.5148L19.9364 10.2375C20.1387 9.9686 20.5125 9.92092 20.7714 10.131C21.0302 10.3411 21.0761 10.7294 20.8739 10.9983L14.2821 19.7625C14.0799 20.0314 13.706 20.0791 13.4472 19.869L9.22864 16.4453C8.96977 16.2352 8.92387 15.8469 9.12612 15.578C9.32837 15.3091 9.70219 15.2614 9.96106 15.4715L13.7109 18.5148Z" fill="#9760AA"/>
</svg>
