<svg width="210" height="30" viewBox="0 0 210 30" fill="none" xmlns="http://www.w3.org/2000/svg">
<circle cx="15" cy="15" r="14.625" stroke="#9760AA" stroke-opacity="0.3" stroke-width="0.75"/>
<path d="M13.7109 18.5148L19.9364 10.2375C20.1387 9.9686 20.5125 9.92092 20.7714 10.131C21.0302 10.3411 21.0761 10.7294 20.8739 10.9983L14.2821 19.7625C14.0799 20.0314 13.706 20.0791 13.4472 19.869L9.22864 16.4453C8.96977 16.2352 8.92387 15.8469 9.12612 15.578C9.32837 15.3091 9.70219 15.2614 9.96106 15.4715L13.7109 18.5148Z" fill="#9760AA"/>
<circle cx="105" cy="15" r="14.625" stroke="#9760AA" stroke-opacity="0.3" stroke-width="0.75"/>
<path d="M103.711 18.5148L109.936 10.2375C110.139 9.9686 110.512 9.92092 110.771 10.131C111.03 10.3411 111.076 10.7294 110.874 10.9983L104.282 19.7625C104.08 20.0314 103.706 20.0791 103.447 19.869L99.2286 16.4453C98.9698 16.2352 98.9239 15.8469 99.1261 15.578C99.3284 15.3091 99.7022 15.2614 99.9611 15.4715L103.711 18.5148Z" fill="#9760AA"/>
<line x1="90" y1="15.375" x2="30" y2="15.375" stroke="#9760AA" stroke-opacity="0.3" stroke-width="0.75"/>
<circle cx="195" cy="15" r="14.625" stroke="#9760AA" stroke-width="0.75"/>
<path d="M197.446 15.882C197.638 16.494 197.734 17.178 197.734 17.934C197.734 18.57 197.668 19.152 197.536 19.68C197.2 21.156 196.312 21.894 194.872 21.894C194.116 21.894 193.492 21.684 193 21.264C192.52 20.844 192.22 20.262 192.1 19.518C192.028 19.098 191.992 18.636 191.992 18.132C191.992 18.012 192.052 17.952 192.172 17.952H193.09C193.21 17.952 193.27 18.012 193.27 18.132C193.27 18.564 193.306 18.954 193.378 19.302C193.582 20.286 194.08 20.778 194.872 20.778C195.244 20.778 195.556 20.664 195.808 20.436C196.06 20.208 196.24 19.878 196.348 19.446C196.444 18.942 196.492 18.402 196.492 17.826C196.492 17.07 196.42 16.44 196.276 15.936C196.156 15.552 195.976 15.264 195.736 15.072C195.496 14.868 195.208 14.766 194.872 14.766C194.764 14.766 194.626 14.802 194.458 14.874C194.35 14.934 194.266 14.928 194.206 14.856L193.738 14.37C193.678 14.286 193.672 14.202 193.72 14.118L196.114 10.356C196.126 10.344 196.126 10.326 196.114 10.302C196.102 10.278 196.084 10.266 196.06 10.266H192.262C192.142 10.266 192.082 10.206 192.082 10.086V9.33C192.082 9.21 192.142 9.15 192.262 9.15H197.518C197.638 9.15 197.698 9.21 197.698 9.33V10.14C197.698 10.2 197.674 10.278 197.626 10.374L195.394 13.866C195.382 13.89 195.376 13.914 195.376 13.938C195.388 13.95 195.406 13.956 195.43 13.956C195.91 14.004 196.324 14.202 196.672 14.55C197.032 14.886 197.29 15.33 197.446 15.882Z" fill="#9760AA"/>
<line x1="180" y1="15.375" x2="120" y2="15.375" stroke="#9760AA" stroke-width="0.75"/>
</svg>
